_________________________  Visit us at _________________________
  
http://p2pdl.com  ____________________________  http://p2pdl.com


Midnights Children 2012 BRRip 720p x264 AAC - PRiSTiNE

Genre: Drama
Plot: A pair of children, born within moments of 
India gaining independence from Britain, grow up 
in the country that is nothing like their parent's 
generation.
Director: Deepa Mehta
Stars: Satya Bhabha, Shahana Goswami, Rajat Kapoor
Rated: PG 13

Info: 
http://www.imdb.com/title/tt1714866/


General
Complete name                  : Midnights Children 2012 BRRip 720p x264 AAC - PRiSTiNE.mp4
Format                         : MPEG-4
Format profile                 : Base Media
File size                      : 835 MiB
Duration                       : 2h 25mn
Overall bit rate mode          : Variable
Overall bit rate               : 802 Kbps

Video
ID                             : 1
Format                         : AVC
Format/Info                    : Advanced Video Codec
Format profile                 : High 10@L4.1
Bit rate                       : 719 Kbps
Width                          : 1 280 pixels
Height                         : 528 pixels
Display aspect ratio           : 2.40:1
Frame rate mode                : Constant
Frame rate                     : 23.976 fps
Bit depth                      : 10 bits
Stream size                    : 748 MiB (90%)
Writing library                : x264 core 130 r2273 b3065e6

Audio
Format                         : AAC
Format/Info                    : Advanced Audio Codec
Bit rate mode                  : Variable
Bit rate                       : 79.9 Kbps
Channel(s)                     : 2 channels
Channel positions              : Front: L R
Sampling rate                  : 48.0 KHz / 24.0 KHz
Stream size                    : 83.2 MiB (10%)
Language                       : English

Subtitle                       : No
Source                         : 720p.BluRay.DTS.x264-PublicHD (Thanks)

Screens:
 
http://www.ultraimg.com/images/pXCz7.jpg 
http://www.ultraimg.com/images/Vnovf.jpg 
http://www.ultraimg.com/images/TxYkv.jpg 
http://www.ultraimg.com/images/kgwTI.jpg 
http://www.ultraimg.com/images/XYbZz.jpg 
http://www.ultraimg.com/images/yGhPL.jpg 
http://www.ultraimg.com/images/wipSH.jpg

----------------------------------------------------------------------------------------------------


Encoded using revolutionary 10bit encoding, which enables us to provide you more crispier 
and sharper images at small sizes, just make sure you follow our instructions without a fault.
Recommend to you to use latest version of VLC player. Install K-Lite Codec Pack or shark007 codecs
in case of any kind of problem in playback (For non-VLC Media Player users). Alternatively, install
Core AVC codecs, the fastest decoder that there is coupled with Community Center Codec Pack and play
on Windows Media Player Classic. Check sample to be sure.
Enjoy!

Encoder Notes:Looking For Early Access To Anything You Can Provide DVDScr, R5, DVDR, BluRay, Direct
Audio, Music Releases and Seedboxes. We require dedicated servers, so as to do more 
and fast releases of movies.
If You Got anything to offer please contact us at "prg@hush.com".

Face book Fan Page:   
http://www.fb.me/p2pdl